<?xml version="1.0" standalone="no"?>
<!DOCTYPE svg PUBLIC "-//W3C//DTD SVG 20010904//EN"
 "http://www.w3.org/TR/2001/REC-SVG-20010904/DTD/svg10.dtd">
<svg version="1.0" xmlns="http://www.w3.org/2000/svg"
 width="1280.000000pt" height="640.000000pt" viewBox="0 0 1280.000000 640.000000"
 preserveAspectRatio="xMidYMid meet">
<metadata>
Created by potrace 1.16, written by Peter Selinger 2001-2019
</metadata>
<g transform="translate(0.000000,640.000000) scale(0.100000,-0.100000)"
fill="#000000" stroke="none">
<path d="M3773 5843 c394 -2 1040 -2 1435 0 394 1 71 2 -718 2 -789 0 -1112
-1 -717 -2z"/>
<path d="M2121 5821 c-15 -12 -21 -23 -16 -31 5 -8 4 -11 -3 -6 -6 3 -16 -2
-21 -13 -15 -28 -15 -4874 0 -4902 5 -11 14 -17 19 -14 6 3 7 0 4 -8 -3 -8 6
-21 23 -31 l28 -17 -24 20 c-28 25 -20 27 14 5 19 -13 52 -15 188 -12 91 2
163 -1 160 -5 -3 -5 5 -3 17 5 43 26 58 67 62 171 3 63 9 102 18 110 10 10 11
9 5 -2 -5 -9 -3 -12 4 -10 7 3 12 9 11 14 -3 18 36 24 158 24 123 1 179 -10
197 -40 5 -7 -2 -5 -16 4 -34 24 -47 21 -15 -4 24 -19 26 -26 26 -94 0 -41 5
-86 11 -102 12 -32 57 -83 73 -83 6 0 -2 12 -19 26 l-30 26 31 -21 c32 -21 32
-21 1479 -21 1371 0 1449 1 1468 17 32 29 47 78 47 157 0 69 2 76 26 95 31 25
20 28 -16 5 l-25 -16 23 21 c32 28 69 33 215 29 123 -3 127 -4 154 -30 25 -25
28 -36 33 -122 3 -52 2 -92 -2 -88 -3 4 -8 46 -10 93 -3 91 -21 130 -57 129
-10 -1 -6 -6 10 -15 30 -16 39 -48 39 -139 0 -39 5 -69 15 -82 8 -10 15 -15
15 -11 0 5 14 -3 31 -17 30 -26 33 -26 196 -26 l165 0 34 34 34 34 0 2442 0
2442 -34 34 -34 34 -165 0 c-163 0 -166 0 -196 -26 -17 -14 -31 -22 -31 -18 0
4 -6 2 -12 -4 -8 -8 -15 -55 -18 -123 -7 -151 -4 -149 -197 -149 -81 0 -154 5
-166 11 -22 10 -22 10 -2 -6 17 -13 45 -15 177 -13 86 2 154 0 151 -4 -2 -5
-73 -8 -158 -8 -152 0 -154 0 -182 26 -15 14 -23 23 -18 21 13 -6 9 163 -5
214 -5 19 -20 45 -33 57 l-24 22 -1463 0 c-1383 0 -1464 -1 -1483 -17 -37 -33
-48 -79 -46 -186 2 -139 5 -137 -192 -137 -119 0 -155 3 -174 16 -20 13 -47
53 -27 40 4 -2 6 41 5 97 -4 111 -18 155 -61 183 -13 9 -22 12 -19 8 3 -5 -75
-9 -173 -9 -98 0 -176 3 -173 8 7 11 0 8 -26 -12z m-26 -2500 c0 -1347 -3
-2447 -7 -2444 -10 5 -11 4877 -1 4886 3 4 7 7 7 7 1 0 1 -1102 1 -2449z
m3392 2013 c15 -14 24 -23 18 -21 -7 3 -10 -159 -10 -478 0 -319 3 -481 10
-478 6 2 -3 -7 -18 -21 l-28 -26 -964 0 -964 0 -28 26 c-15 14 -23 23 -18 21
7 -3 10 159 10 478 0 319 -3 481 -10 478 -5 -2 3 7 18 21 l28 26 964 0 964 0
28 -26z m-2540 -410 c15 -14 24 -23 18 -21 -6 3 -10 -56 -10 -168 0 -112 4
-171 10 -168 6 3 0 -5 -13 -18 -22 -23 -29 -24 -176 -27 l-154 -3 -34 31 c-18
18 -28 29 -23 27 6 -3 10 53 10 158 0 105 -4 161 -10 158 -5 -3 5 9 23 26 l32
31 150 0 c146 0 149 0 177 -26z m3433 10 c14 -8 16 -12 5 -7 -11 4 -87 9 -170
11 -126 2 -153 0 -170 -13 -20 -16 -20 -16 2 -6 35 17 304 14 329 -4 12 -8 24
-12 27 -9 3 3 8 0 13 -7 4 -7 3 -10 -2 -7 -5 4 -9 -62 -9 -157 0 -105 4 -161
10 -158 6 2 -5 -9 -23 -27 l-34 -31 -154 3 c-147 3 -154 4 -176 27 -13 13 -18
21 -13 18 6 -3 10 56 10 168 0 112 -4 171 -10 168 -5 -2 3 7 18 21 28 26 31
26 175 26 114 -1 153 -4 172 -16z m-7 -951 c3 -5 -65 -7 -151 -5 -132 2 -160
0 -177 -13 -20 -16 -20 -16 2 -6 12 6 85 11 166 11 201 0 192 10 192 -198 0
-104 4 -158 10 -155 6 3 -2 -7 -18 -23 -27 -29 -28 -29 -168 -32 -144 -4 -185
3 -211 36 -11 14 -9 13 12 -1 35 -24 48 -21 16 4 l-27 21 3 163 c2 106 0 161
-7 158 -5 -2 3 7 18 21 28 26 30 26 182 26 85 0 156 -3 158 -7z m-3435 -29
c23 -16 23 -19 20 -184 -2 -110 0 -166 7 -162 6 3 4 -1 -3 -10 -26 -33 -67
-40 -211 -36 -138 3 -141 3 -168 31 -28 27 -28 30 -31 168 -2 78 0 145 5 149
4 5 8 -58 8 -140 0 -131 2 -150 19 -169 11 -12 23 -21 29 -21 5 0 -1 9 -14 19
-23 19 -24 23 -24 176 0 204 -9 195 194 195 118 0 151 -3 169 -16z m2532 -119
c17 -9 30 -18 30 -21 0 -2 -13 2 -30 11 -43 22 -1906 23 -1950 0 -15 -8 -30
-20 -33 -27 -4 -10 -6 -10 -6 0 -1 7 14 21 32 32 31 19 53 20 980 20 830 0
952 -2 977 -15z m7 -28 c11 -9 22 -15 24 -13 2 2 4 -211 4 -474 0 -263 -2
-476 -4 -474 -2 2 -13 -4 -24 -13 -18 -17 -80 -18 -971 -21 -673 -2 -959 1
-978 9 -14 6 -29 20 -32 32 -7 28 -8 905 0 933 3 12 15 26 27 32 15 7 325 10
978 9 896 -2 958 -3 976 -20z m-2533 -792 c11 -8 15 -15 9 -15 -7 0 -15 5 -18
10 -3 6 -16 9 -28 9 -20 -1 -21 -2 -2 -6 11 -3 27 -11 36 -19 9 -8 18 -11 21
-8 3 3 9 0 14 -7 4 -8 3 -10 -4 -5 -9 5 -12 -34 -12 -153 l0 -160 -26 -20
c-32 -25 -19 -28 15 -4 14 9 21 11 16 4 -17 -29 -74 -41 -197 -41 -97 0 -130
4 -158 18 l-35 17 0 166 c0 150 2 169 19 188 11 12 31 22 45 22 24 2 25 2 3 6
-13 3 -35 -3 -50 -12 l-27 -16 24 20 c21 19 36 21 180 21 121 -1 160 -4 175
-15z m3447 -6 l24 -20 -27 16 c-15 9 -37 15 -50 12 -22 -4 -21 -4 3 -6 14 0
34 -10 45 -22 17 -19 19 -38 19 -188 l0 -166 -35 -17 c-28 -14 -61 -18 -158
-18 -123 0 -180 12 -197 41 -5 7 2 5 16 -4 34 -24 47 -21 15 4 l-26 20 0 160
c0 125 -3 159 -12 153 -8 -4 -10 -3 -5 2 5 5 14 9 20 9 7 0 12 5 12 10 1 32
18 35 174 35 146 0 161 -2 182 -21z m-2871 -194 c44 -23 1907 -22 1950 0 17 9
30 13 30 11 0 -3 -13 -12 -30 -21 -25 -13 -147 -15 -977 -15 -927 0 -949 1
-980 20 -18 11 -33 25 -32 32 0 10 2 10 6 0 3 -7 18 -19 33 -27z m1967 -511
c15 -14 24 -23 18 -21 -7 3 -10 -159 -10 -478 0 -319 3 -481 10 -478 6 2 -3
-7 -18 -21 l-28 -26 -964 0 -964 0 -28 26 c-15 14 -23 23 -18 21 7 -3 10 159
10 478 0 319 -3 481 -10 478 -5 -2 3 7 18 21 l28 26 964 0 964 0 28 -26z
m-2550 -242 c13 -7 28 -22 34 -33 8 -15 8 -19 0 -15 -8 5 -11 -39 -11 -154 0
-119 3 -159 12 -154 7 4 8 3 4 -5 -4 -6 -11 -9 -16 -6 -4 3 -13 -2 -20 -10 -7
-8 -20 -15 -29 -16 -9 0 -11 -3 -4 -5 7 -3 22 0 35 6 22 11 22 10 4 -4 -16
-13 -50 -16 -177 -16 -145 0 -159 2 -180 21 l-24 21 25 -16 c13 -9 31 -16 40
-16 9 0 4 6 -10 13 -44 22 -51 50 -48 200 3 138 3 139 31 163 32 28 23 32 -13
7 -24 -16 -24 -16 -11 0 7 9 28 21 45 27 44 13 286 7 313 -8z m3444 -3 c24
-16 25 -19 27 -170 3 -167 -3 -193 -48 -216 -14 -7 -19 -13 -10 -13 9 0 27 7
40 16 l25 16 -24 -21 c-22 -20 -33 -21 -185 -19 -99 2 -161 7 -161 13 0 17
-16 36 -25 30 -5 -3 -12 0 -16 6 -4 8 -3 9 4 5 9 -5 12 35 12 154 0 119 -3
159 -12 154 -7 -4 -8 -3 -4 5 4 6 11 9 16 6 4 -3 13 2 20 10 7 8 20 15 29 16
9 0 11 3 4 5 -7 3 -22 0 -35 -7 -18 -9 -21 -9 -11 1 20 22 75 29 203 27 97 -2
132 -6 151 -18z"/>
<path d="M3514 5334 c-18 -15 -18 -15 3 -5 30 15 1926 15 1956 0 21 -10 21
-10 3 5 -18 14 -126 16 -981 16 -855 0 -963 -2 -981 -16z"/>
<path d="M3514 1306 c18 -14 126 -16 981 -16 855 0 963 2 981 16 18 15 18 15
-3 5 -30 -15 -1926 -15 -1956 0 -21 10 -21 10 -3 -5z"/>
<path d="M6894 5778 c14 -20 16 -270 16 -2461 l0 -2439 -39 -39 -39 -39 -165
0 c-163 0 -166 0 -196 26 -17 14 -31 22 -31 17 0 -4 15 -18 33 -31 31 -21 44
-22 193 -22 163 0 177 3 220 45 34 33 34 20 34 2484 0 2436 -1 2481 -32 2481
-5 0 -2 -10 6 -22z"/>
<path d="M7789 5663 l-1 -28 -8 25 c-4 14 -8 19 -9 11 -1 -8 15 -59 34 -115
19 -56 53 -153 74 -216 22 -63 45 -114 50 -113 6 2 8 -3 5 -11 -3 -8 13 -67
34 -132 52 -153 88 -276 118 -393 23 -90 24 -109 26 -485 l3 -391 5 400 c3
220 6 391 8 380 1 -11 3 -191 5 -400 l2 -380 148 -3 147 -3 2 378 3 378 5
-375 5 -375 3 375 c3 414 -4 358 74 610 11 36 23 79 28 95 5 17 18 62 30 100
12 39 25 84 30 100 5 17 27 91 50 165 59 190 80 260 90 295 4 17 15 51 23 77
8 27 11 46 7 43 -5 -3 -11 -1 -15 5 -4 6 -65 10 -156 10 -135 0 -149 -2 -149
-17 0 -15 -2 -16 -10 -3 -5 8 -10 12 -10 8 0 -4 -14 -60 -31 -125 -17 -65 -53
-209 -82 -320 -28 -112 -54 -197 -58 -191 -5 7 -3 18 2 24 10 12 6 32 -24 144
-34 123 -72 261 -98 360 -15 58 -32 104 -38 103 -6 -2 -11 2 -11 7 0 6 -58 10
-155 10 l-155 0 -1 -27z"/>
<path d="M9020 5219 c-14 -5 -32 -8 -41 -6 -9 3 -23 0 -30 -5 -11 -8 -10 -8 4
-4 11 4 16 2 11 -5 -3 -6 -15 -9 -25 -6 -31 8 -124 -84 -158 -156 -47 -101
-51 -140 -51 -525 0 -386 5 -436 55 -530 26 -50 58 -92 71 -92 4 0 -3 11 -16
25 -13 14 -21 25 -19 25 3 0 25 -21 49 -47 25 -26 33 -37 18 -24 -16 14 -28
20 -28 15 2 -28 150 -105 198 -103 19 1 19 1 -60 24 -32 10 -63 24 -69 31 -8
10 -2 9 21 -2 111 -56 246 -56 360 0 28 13 31 14 16 1 -34 -27 -4 -16 32 12
54 41 89 83 118 140 45 90 54 177 54 523 0 347 -10 442 -54 527 -27 51 -59 93
-72 93 -4 0 3 -12 17 -27 13 -16 -1 -5 -31 24 -78 74 -133 96 -250 100 -52 2
-106 -2 -120 -8z m178 -264 c4 -5 1 -5 -7 0 -9 5 -12 3 -9 -6 3 -8 10 -13 16
-12 7 2 11 -128 12 -404 0 -223 3 -410 6 -415 3 -5 0 -7 -8 -6 -8 2 -13 -7
-13 -22 0 -37 -45 -56 -96 -41 -21 6 -41 16 -45 22 -4 7 2 7 16 -1 l22 -12
-24 32 c-23 32 -23 33 -26 378 -4 398 0 444 34 479 20 20 31 23 69 20 25 -2
49 -8 53 -12z"/>
<path d="M9675 4585 c1 -482 4 -639 14 -668 12 -38 75 -117 92 -117 5 0 -8 16
-29 36 l-37 37 37 -31 c74 -61 153 -66 255 -16 32 15 80 48 106 73 27 25 47
41 46 35 -1 -5 -1 -35 0 -66 l1 -58 135 0 135 0 0 700 0 700 -135 0 -135 0 -2
-527 -3 -528 -5 530 -5 530 -3 -538 c-1 -405 1 -536 10 -531 7 5 8 3 4 -5 -5
-7 -11 -10 -14 -7 -7 8 -42 -24 -42 -37 0 -6 10 -2 23 9 20 17 20 17 -2 -8
-33 -38 -102 -64 -130 -49 -12 7 -21 14 -21 17 0 2 9 0 19 -6 11 -5 26 -10 33
-9 7 0 3 4 -9 9 l-23 9 -2 573 -3 573 -5 -570 -5 -570 -3 568 -2 567 -140 0
-141 0 3 -629 c2 -346 1 -627 -2 -624 -3 2 -7 287 -10 631 l-6 627 1 -630z"/>
<path d="M9101 3605 c4 -3 238 -10 520 -15 671 -12 1045 -34 1181 -70 37 -9
65 -14 63 -10 -9 15 -141 39 -265 49 -258 22 -445 31 -780 36 -190 3 -430 8
-535 11 -104 3 -187 3 -184 -1z"/>
<path d="M8335 3590 c-108 -3 14 -5 285 -4 l475 2 -415 -8 c-545 -11 -963 -35
-1085 -62 -27 -6 -70 -19 -95 -30 -32 -13 -40 -14 -26 -3 38 29 4 15 -47 -20
-71 -48 -87 -61 -87 -70 0 -5 12 2 28 16 15 13 7 2 -18 -24 -24 -26 -46 -47
-49 -47 -2 0 6 11 19 25 13 14 20 25 16 25 -11 0 -52 -53 -48 -63 1 -5 -2 -6
-7 -3 -11 7 -77 -105 -92 -156 -26 -90 -46 -219 -69 -456 -13 -136 -13 -994 1
-1141 15 -165 37 -326 56 -401 18 -75 69 -183 83 -175 5 3 12 0 16 -6 4 -8 3
-9 -4 -5 -18 11 -14 -10 5 -25 11 -10 14 -10 9 -1 -11 18 -1 15 15 -5 10 -11
10 -14 2 -9 -24 14 -13 -10 16 -38 16 -16 33 -26 38 -23 5 3 24 -8 43 -25 l35
-30 -39 28 c-22 15 -36 22 -32 16 8 -14 91 -72 102 -72 4 0 -1 7 -12 15 -10 8
7 4 38 -10 146 -66 667 -95 1688 -95 659 0 949 7 1280 31 285 20 374 37 459
85 34 19 40 20 21 5 -14 -11 -29 -21 -34 -21 -5 0 -7 -3 -3 -6 7 -8 117 68
117 80 0 5 -12 -1 -27 -15 -16 -13 -8 -3 16 23 24 26 49 46 55 45 6 -1 10 4 9
10 -2 7 2 12 8 10 6 -1 14 4 17 12 3 9 0 11 -9 6 -8 -5 -11 -4 -6 1 5 5 14 9
20 9 5 0 12 6 15 14 3 9 0 11 -8 6 -9 -5 -11 -4 -6 4 4 6 12 9 17 5 13 -7 63
107 77 176 33 164 48 305 62 597 14 278 12 504 -5 793 -17 279 -27 371 -61
540 -10 53 -72 182 -84 175 -5 -3 -7 0 -5 8 3 7 -4 22 -16 33 -13 10 -19 13
-15 7 10 -19 1 -16 -15 4 -10 11 -10 14 -1 9 6 -4 12 -3 12 2 0 13 -39 46 -46
39 -4 -3 -25 9 -48 27 -22 18 -54 41 -71 50 -16 10 -21 14 -10 11 11 -3 16 -2
11 2 -4 4 -17 8 -29 9 -12 1 -49 8 -82 16 -127 33 -506 55 -1170 70 -622 13
-1043 16 -1290 8z m-65 -620 l0 -100 -132 -2 -133 -2 145 -6 145 -6 -147 -2
-148 -2 -2 -782 -3 -783 -5 780 -5 780 -3 -777 -2 -778 -110 0 -110 0 -2 778
-3 777 -5 -780 -5 -780 -3 783 -2 782 -137 2 -138 2 135 6 135 6 -132 2 -133
2 0 100 0 100 400 0 400 0 0 -100z m1017 -1237 c-1 -247 -2 -45 -2 447 0 492
1 694 2 448 2 -247 2 -649 0 -895z m205 1045 l3 -293 5 295 5 295 3 -294 c2
-274 3 -293 20 -287 14 5 14 4 -2 -9 -11 -8 -15 -15 -9 -15 15 0 44 36 36 44
-5 4 -1 6 7 4 9 -2 14 3 12 12 -2 8 0 12 4 8 4 -4 19 3 34 15 15 12 36 28 46
35 16 10 15 11 -6 1 -14 -6 -34 -19 -45 -28 -19 -15 -19 -15 -5 3 25 32 115
66 174 66 65 0 128 -29 131 -60 1 -3 12 -32 25 -65 l25 -60 0 -505 c0 -528 2
-504 -40 -604 -7 -15 -5 -17 6 -11 8 5 5 -2 -6 -15 -29 -33 -93 -60 -146 -60
-62 0 -151 46 -209 107 -25 26 -35 39 -22 29 12 -11 22 -15 22 -10 0 5 -12 17
-26 27 -13 10 -24 15 -23 10 1 -4 0 -35 -1 -68 l-3 -60 -7 60 -7 60 -1 -57 -2
-58 -95 0 -95 0 0 890 0 890 95 0 95 0 2 -292z m1182 -163 c53 -16 107 -46
127 -72 8 -10 -4 -4 -26 11 l-40 29 40 -36 c22 -19 43 -33 46 -31 4 2 15 -6
25 -19 16 -18 16 -19 2 -8 -22 17 -23 9 -2 -31 37 -72 45 -123 51 -325 l6
-203 -234 -2 -234 -2 235 -6 235 -6 -238 -2 -238 -2 1 -172 c1 -229 -3 -235
-10 -13 l-6 180 -2 -175 c-2 -161 0 -178 19 -209 11 -18 23 -30 26 -27 4 3 17
-4 31 -16 33 -32 111 -32 144 -1 13 12 28 21 33 21 19 -2 39 58 43 130 l4 72
96 0 95 0 -7 -97 c-3 -54 -9 -109 -13 -122 -5 -18 -3 -22 7 -16 9 5 11 4 6 -4
-4 -6 -11 -9 -16 -6 -8 5 -37 -54 -32 -67 1 -5 -3 -7 -9 -5 -6 1 -14 -4 -17
-12 -3 -9 0 -11 9 -6 8 5 6 -1 -5 -13 -10 -12 -23 -19 -27 -16 -5 3 -21 -4
-35 -15 -15 -12 -23 -21 -19 -21 5 0 18 8 29 17 l21 17 -20 -21 c-28 -30 -137
-63 -208 -63 -65 0 -154 22 -183 46 -10 9 -12 12 -4 9 8 -4 2 4 -15 19 -16 14
-34 25 -40 25 -5 0 1 -9 15 -20 17 -14 19 -17 5 -11 -11 6 -31 23 -45 38 -14
15 -19 24 -11 19 9 -5 12 -3 9 6 -3 8 -10 14 -15 14 -6 0 -15 4 -20 9 -5 6 -2
6 6 1 16 -9 17 -14 -23 80 -20 48 -21 65 -21 450 0 429 3 455 55 539 11 18 16
37 12 41 -4 5 -2 6 3 3 6 -4 28 10 50 29 l40 36 -37 -27 c-48 -34 -50 -26 -2
10 77 59 223 81 328 49z m-2114 -567 c0 -333 4 -549 10 -558 5 -8 10 -11 10
-7 0 5 12 -1 26 -12 33 -26 50 -26 97 -2 32 16 36 17 25 3 -8 -10 0 -7 20 7
17 12 43 37 57 55 l25 33 0 511 0 512 95 0 95 0 0 -650 0 -650 -95 0 -95 0 -2
68 -2 67 -6 -70 -6 -70 -3 70 c-2 39 -3 74 -2 78 1 5 -10 0 -23 -10 -14 -10
-26 -22 -26 -27 0 -5 10 -1 23 10 12 10 6 1 -13 -20 -19 -21 -48 -47 -65 -58
l-30 -20 24 21 c13 12 19 21 15 21 -5 -1 -22 -12 -39 -26 -16 -15 -24 -23 -17
-20 6 4 12 4 12 1 0 -14 -108 -55 -146 -55 -48 0 -118 26 -109 41 4 5 1 16 -5
24 -7 8 -18 36 -26 62 -9 30 -12 36 -9 16 2 -18 1 -33 -4 -33 -4 0 -7 14 -6
30 1 17 2 293 3 615 l2 585 95 0 95 0 0 -542z"/>
<path d="M9580 2435 c-15 -10 -17 -13 -5 -8 38 15 113 9 132 -10 17 -17 17
-17 -15 -1 -23 11 -45 14 -70 10 -20 -4 -47 -8 -60 -10 -12 -1 -33 -13 -47
-26 l-25 -23 2 -431 3 -431 2 431 3 431 28 24 27 24 -22 -26 -23 -25 0 -426 0
-427 26 -20 c42 -33 100 -47 137 -33 29 10 30 10 13 -3 -27 -20 -11 -19 20 2
14 9 35 34 47 57 20 39 21 57 25 366 3 335 -4 477 -26 473 -6 -2 -9 4 -6 11 3
8 -7 28 -23 46 -35 39 -102 50 -143 25z"/>
<path d="M10463 2407 c-44 -39 -55 -82 -51 -207 l4 -105 2 118 c1 64 5 117 10
117 4 0 6 -54 4 -120 l-3 -120 131 0 132 0 -4 124 c-2 69 -1 122 2 119 3 -2 8
-57 11 -121 l5 -117 2 110 c2 88 -2 117 -16 144 -9 19 -21 34 -27 33 -5 0 -20
9 -33 21 -15 14 -41 23 -79 27 -52 6 -59 4 -90 -23z"/>
<path d="M3773 793 c394 -2 1040 -2 1435 0 394 1 71 2 -718 2 -789 0 -1112 -1
-717 -2z"/>
<path d="M7800 730 c273 -27 584 -35 1410 -34 510 0 933 5 1030 12 l165 10
-215 -6 c-386 -12 -1836 -8 -2075 6 -121 7 -258 14 -305 16 l-85 4 75 -8z"/>
</g>
</svg>
